<svg xmlns="http://www.w3.org/2000/svg" width="20" height="19.999" viewBox="0 0 20 19.999"><path d="M10,1.8c2.67,0,2.986.01,4.04.058A5.533,5.533,0,0,1,15.9,2.2a3.1,3.1,0,0,1,1.15.748,3.1,3.1,0,0,1,.748,1.15,5.533,5.533,0,0,1,.344,1.856c.048,1.055.058,1.37.058,4.04s-.01,2.986-.058,4.04a5.533,5.533,0,0,1-.344,1.856,3.311,3.311,0,0,1-1.9,1.9,5.533,5.533,0,0,1-1.856.344c-1.054.048-1.37.058-4.04.058s-2.986-.01-4.04-.058A5.533,5.533,0,0,1,4.1,17.79a3.1,3.1,0,0,1-1.15-.748,3.1,3.1,0,0,1-.748-1.15,5.533,5.533,0,0,1-.344-1.856C1.812,12.985,1.8,12.668,1.8,10s.01-2.986.058-4.04A5.533,5.533,0,0,1,2.2,4.1a3.1,3.1,0,0,1,.751-1.15A3.1,3.1,0,0,1,4.1,2.2,5.533,5.533,0,0,1,5.959,1.86C7.012,1.812,7.329,1.8,10,1.8M10,0C7.283,0,6.942.011,5.877.06A7.339,7.339,0,0,0,3.45.527,4.9,4.9,0,0,0,1.678,1.68,4.9,4.9,0,0,0,.525,3.449,7.339,7.339,0,0,0,.058,5.876C.011,6.942,0,7.283,0,10s.011,3.056.06,4.122a7.339,7.339,0,0,0,.467,2.427A4.9,4.9,0,0,0,1.68,18.319a4.9,4.9,0,0,0,1.771,1.153,7.339,7.339,0,0,0,2.427.467C6.944,19.987,7.285,20,10,20s3.056-.011,4.122-.06a7.339,7.339,0,0,0,2.427-.467,5.113,5.113,0,0,0,2.924-2.924,7.339,7.339,0,0,0,.467-2.427c.049-1.067.06-1.407.06-4.122s-.011-3.056-.06-4.122a7.339,7.339,0,0,0-.467-2.427A4.9,4.9,0,0,0,18.32,1.678,4.9,4.9,0,0,0,16.548.525,7.339,7.339,0,0,0,14.121.058C13.055.011,12.714,0,10,0Z" fill="#111"/><path d="M12.433,7.3a5.133,5.133,0,1,0,5.133,5.133A5.133,5.133,0,0,0,12.433,7.3Zm0,8.466a3.333,3.333,0,1,1,3.333-3.333A3.333,3.333,0,0,1,12.433,15.766Z" transform="translate(-2.434 -2.434)" fill="#111"/><circle cx="1.2" cy="1.2" r="1.2" transform="translate(14.136 3.462)" fill="#111"/></svg>