<?xml version="1.0" encoding="utf-8"?>
<!-- Generator: Adobe Illustrator 21.0.0, SVG Export Plug-In . SVG Version: 6.00 Build 0)  -->
<svg version="1.1" id="图层_1" xmlns="http://www.w3.org/2000/svg" xmlns:xlink="http://www.w3.org/1999/xlink" x="0px" y="0px"
	 viewBox="0 0 19.9 16.9" style="enable-background:new 0 0 19.9 16.9;" xml:space="preserve">
<style type="text/css">
	.st0{fill:#111111;}
</style>
<path class="st0" d="M0.2,7.9L5,9.5c0.2,0.1,0.4,0.2,0.4,0.4l1.7,5.2c0.1,0.3,0.4,0.4,0.7,0.2l2.4-1.8c0.2-0.2,0.6-0.2,0.8,0
	l4.7,3.2c0.3,0.2,0.6,0,0.7-0.3l3.4-16.1c0-0.1-0.3-0.4-0.6-0.3L0.1,7.4C-0.1,7.5-0.1,7.8,0.2,7.9z M8.1,11.1l-0.4,1.9
	c-0.1,0.2-0.4,0.2-0.4,0L6.4,9.8C6.3,9.5,6.4,9.2,6.7,9l9-5.4c0.1-0.1,0.2,0.1,0.1,0.1l-7.4,6.9C8.3,10.8,8.2,11,8.1,11.1z"/>
</svg>
