<svg xmlns="http://www.w3.org/2000/svg" width="20" height="16.261" viewBox="0 0 20 16.261"><path d="M6.267,16.27A11.6,11.6,0,0,0,17.933,4.6V4.07A8.333,8.333,0,0,0,20,1.936a8.2,8.2,0,0,1-2.333.667A4.133,4.133,0,0,0,19.467.27a8.2,8.2,0,0,1-2.6,1,4.133,4.133,0,0,0-7,3.8A11.667,11.667,0,0,1,1.4.736,4.133,4.133,0,0,0,2.667,6.2,4.067,4.067,0,0,1,.8,5.67h0a4.133,4.133,0,0,0,3.267,4A4.067,4.067,0,0,1,2.2,9.736,4.133,4.133,0,0,0,6.067,12.6,8.267,8.267,0,0,1,1,14.336H0A11.6,11.6,0,0,0,6.267,16.2" transform="translate(0 -0.009)" fill="#111"/></svg>