<?xml version="1.0" encoding="utf-8"?>
<!-- Generator: Adobe Illustrator 21.0.0, SVG Export Plug-In . SVG Version: 6.00 Build 0)  -->
<svg version="1.1" id="图层_1" xmlns="http://www.w3.org/2000/svg" xmlns:xlink="http://www.w3.org/1999/xlink" x="0px" y="0px"
	 viewBox="0 0 20 20" style="enable-background:new 0 0 20 20;" xml:space="preserve">
<style type="text/css">
	.st0{fill:#111111;}
</style>
<g>
	<path class="st0" d="M17.7,0H2.3C1,0,0,1,0,2.3v15.4C0,19,1,20,2.3,20h8.4v-7.8H8v-3h2.6V6.6c0,0,0-3.3,3.3-3.6
		c0,0,0.9-0.1,2.9,0.1v2.8h-2c0,0-1,0-1.1,1.1v2.3h3l-0.4,3h-2.6V20h3.9c1.3,0,2.3-1,2.3-2.3V2.3C20,1,19,0,17.7,0z"/>
</g>
</svg>
