<?xml version="1.0" encoding="utf-8"?>
<!-- Generator: Adobe Illustrator 21.0.0, SVG Export Plug-In . SVG Version: 6.00 Build 0)  -->
<svg version="1.1" id="图层_1" xmlns="http://www.w3.org/2000/svg" xmlns:xlink="http://www.w3.org/1999/xlink" x="0px" y="0px"
	 viewBox="0 0 20 20" style="enable-background:new 0 0 20 20;" xml:space="preserve">
<style type="text/css">
	.st0{fill:#111111;}
</style>
<g>
	<path class="st0" d="M17.7,0.3H2.5c-1.3,0-2.3,1-2.3,2.2v15c0,1.3,1,2.2,2.3,2.2h8.3v-7.6H8.1V9.3h2.6V6.7c0,0,0-3.2,3.2-3.5
		c0,0,0.9-0.1,2.9,0.1V6h-2c0,0-1,0-1.1,1.1v2.2h2.9l-0.4,2.9h-2.6v7.5h3.8c1.3,0,2.3-1,2.3-2.2v-15C19.9,1.3,18.9,0.3,17.7,0.3z"/>
</g>
</svg>
