<svg id="图层_1" data-name="图层 1" xmlns="http://www.w3.org/2000/svg" viewBox="0 0 470 459.41"><defs><style>.cls-1{fill:#ff7970;}.cls-2{fill:#00bfff;}.cls-3{fill:#fff;}.cls-4{fill:#e60000;}.cls-5{fill:#007aff;}</style></defs><title>FishChain彩色</title><path class="cls-1" d="M772.69,371a873.39,873.39,0,0,0-89.76-97.58l-.1.1A789.68,789.68,0,0,0,526.69,157.88h0a13.81,13.81,0,0,0-20.58,12V601.67a13.81,13.81,0,0,0,20.59,12A785,785,0,0,0,651.4,526.25h.06l1.24-1.14c3.25-2.79,6.53-5.56,9.74-8.41l-.27-.26,20.4-18.67.34.33c4-3.77,8-7.71,11.93-11.56l3.52-3.22-.07-.12a875.53,875.53,0,0,0,74.38-82.68A23.87,23.87,0,0,0,772.69,371Zm-89.76,41.5a26.76,26.76,0,1,1,26.76-26.76A26.76,26.76,0,0,1,682.93,412.54Z" transform="translate(-447.75 -156.09)"/><path class="cls-2" d="M593.3,371a873.39,873.39,0,0,1,89.76-97.58l.1.1A789.68,789.68,0,0,1,839.3,157.88h0a13.81,13.81,0,0,1,20.58,12V601.67a13.81,13.81,0,0,1-20.59,12,785,785,0,0,1-124.72-87.45h-.06l-1.24-1.14c-3.25-2.79-6.53-5.56-9.74-8.41l.27-.26-20.4-18.67-.34.33c-4-3.77-8-7.71-11.93-11.56l-3.52-3.22.07-.12a875.53,875.53,0,0,1-74.38-82.68A23.87,23.87,0,0,1,593.3,371Zm89.76,41.5a26.76,26.76,0,1,0-26.76-26.76A26.76,26.76,0,0,0,683.06,412.54Z" transform="translate(-447.75 -156.09)"/><path class="cls-3" d="M682.93,273.46a873.35,873.35,0,0,0-89.44,97.18,24.36,24.36,0,0,0,0,30.3,873.33,873.33,0,0,0,89.44,97.18,873.31,873.31,0,0,0,89.76-97.58,23.87,23.87,0,0,0,0-29.49A873.32,873.32,0,0,0,682.93,273.46Z" transform="translate(-447.75 -156.09)"/><path class="cls-4" d="M561.12,376.55c-18.46-21-66.23-73.79-97.44-95.68-7.41-5.2-15.93,1.57-15.93,13V477.75c0,11.38,8.62,18.29,15.93,13,33.17-24.21,79.52-76,97.51-96.6A13.31,13.31,0,0,0,561.12,376.55Z" transform="translate(-447.75 -156.09)"/><path class="cls-5" d="M804.37,376.55c18.46-21,66.23-73.79,97.44-95.68,7.41-5.2,15.93,1.57,15.93,13V477.75c0,11.38-8.62,18.29-15.93,13-33.17-24.21-79.52-76-97.51-96.6A13.31,13.31,0,0,1,804.37,376.55Z" transform="translate(-447.75 -156.09)"/><circle cx="235.18" cy="229.7" r="26.76"/></svg>