<svg id="图层_1" data-name="图层 1" xmlns="http://www.w3.org/2000/svg" viewBox="0 0 470.13 459.55"><defs><style>.cls-1{fill:#fff;}</style></defs><title>FishChain白色</title><path class="cls-1" d="M845.66,583.52a10,10,0,0,1-15,8.63A782.38,782.38,0,0,1,692.9,487.78a875.25,875.25,0,0,0,79.85-88.18,23.88,23.88,0,0,0,0-29.5A873.56,873.56,0,0,0,683,272.49l0,0A789.88,789.88,0,0,0,526.68,156.89h0a13.81,13.81,0,0,0-20.59,12V278.57Q513,289,519.9,299.29V186.2a10,10,0,0,1,15-8.63,782.42,782.42,0,0,1,138,104.53,875.31,875.31,0,0,0-79.34,87.6,24.37,24.37,0,0,0,0,30.31,876.76,876.76,0,0,0,71.1,79.55A792.77,792.77,0,0,0,838.88,612.83h0a13.81,13.81,0,0,0,20.59-12V491.14q-6.87-10.46-13.81-20.72ZM683,358.09a26.76,26.76,0,1,1-26.76,26.76A26.76,26.76,0,0,1,683,358.09Z" transform="translate(-447.71 -155.09)"/><path class="cls-1" d="M830.72,177.58a9.94,9.94,0,0,1,14.94,8.61V299.31q6.95-10.27,13.81-20.72V168.92a13.81,13.81,0,0,0-20.59-12,788,788,0,0,0-135.6,96.83c3.39,3.17,6.66,6.51,10,9.75A780,780,0,0,1,830.72,177.58Z" transform="translate(-447.71 -155.09)"/><path class="cls-1" d="M534.83,592.14a9.94,9.94,0,0,1-14.94-8.61V470.41q-6.95,10.27-13.81,20.72V600.79a13.81,13.81,0,0,0,20.59,12h0a788,788,0,0,0,135.8-97c-3.39-3.18-6.66-6.51-10-9.75A780,780,0,0,1,534.83,592.14Z" transform="translate(-447.71 -155.09)"/><path class="cls-1" d="M561.18,393.17a13.31,13.31,0,0,0-.07-17.56c-18.46-21-66.25-73.81-97.47-95.7-7.41-5.2-15.94,1.57-15.94,13v184c0,11.38,8.62,18.3,15.94,13C496.83,465.58,543.19,413.83,561.18,393.17Zm-91.89,74.49a4.71,4.71,0,0,1-7.76-3.61V305.4a4.71,4.71,0,0,1,7.72-3.64c28.33,23.86,64,63.24,78.75,79.86a4.65,4.65,0,0,1-.05,6.22C531.24,406.45,497.71,443.45,469.29,467.67Z" transform="translate(-447.71 -155.09)"/><path class="cls-1" d="M901.91,279.9c-31.22,21.89-79,74.7-97.47,95.7a13.31,13.31,0,0,0-.07,17.56c18,20.65,64.35,72.41,97.53,96.63,7.31,5.34,15.94-1.58,15.94-13v-184C917.84,281.48,909.32,274.71,901.91,279.9ZM904,464.06a4.71,4.71,0,0,1-7.76,3.61c-28.41-24.21-61.95-61.22-78.65-79.82a4.65,4.65,0,0,1-.05-6.22c14.72-16.62,50.42-56,78.75-79.86A4.71,4.71,0,0,1,904,305.4Z" transform="translate(-447.71 -155.09)"/></svg>