<svg id="图层_1" data-name="图层 1" xmlns="http://www.w3.org/2000/svg" viewBox="0 0 32.13 29.08"><defs><style>.cls-1{fill:#fc3;}.cls-2{fill:#fff;}</style></defs><title>第1大关积分鱼1-3</title><path d="M694.7,370.23l-4.46,0v7.36l4.46,0a3.7,3.7,0,1,0,0-7.4Z" transform="translate(-666.62 -370.19)"/><path d="M695.05,377.48h-4.46v7.36l4.46,0a3.7,3.7,0,1,0,0-7.4Z" transform="translate(-666.62 -370.19)"/><path d="M694.8,384.82h-4.46v7.36l4.46,0a3.7,3.7,0,1,0,0-7.4Z" transform="translate(-666.62 -370.19)"/><path d="M694.14,391.88h-4.46v7.36l4.46,0a3.7,3.7,0,1,0,0-7.4Z" transform="translate(-666.62 -370.19)"/><path class="cls-1" d="M691,370.19c-12.46.08-21.91,5.92-24.39,11.16,2,1,3.16,2.17,3.16,3.44A3.28,3.28,0,0,1,667,388c2.86,5.11,5.74,11.21,23.65,11.12C693.24,399.15,693.58,370.17,691,370.19Z" transform="translate(-666.62 -370.19)"/><ellipse class="cls-2" cx="674.9" cy="381.48" rx="4.97" ry="5.42" transform="translate(-676.76 374.27) rotate(-57.39)"/><path d="M672,379.2a3.28,3.28,0,1,1-1.35,4.37A3.24,3.24,0,0,1,672,379.2Z" transform="translate(-666.62 -370.19)"/><path class="cls-2" d="M690.4,384.05a5.77,5.77,0,1,1-2-7.53A5.51,5.51,0,0,1,690.4,384.05Z" transform="translate(-666.62 -370.19)"/><ellipse cx="684.13" cy="380.97" rx="3.37" ry="3.48" transform="translate(-765.01 -18.21) rotate(-26.99)"/></svg>