<svg id="图层_1" data-name="图层 1" xmlns="http://www.w3.org/2000/svg" viewBox="0 0 470.13 459.55"><title>FishChain黑色</title><path d="M682.86,272.49A873.59,873.59,0,0,0,593.4,369.7a24.37,24.37,0,0,0,0,30.31,873.57,873.57,0,0,0,89.47,97.21,873.55,873.55,0,0,0,89.78-97.61,23.88,23.88,0,0,0,0-29.5A873.57,873.57,0,0,0,682.86,272.49Zm0,139.13a26.76,26.76,0,1,1,26.76-26.76A26.76,26.76,0,0,1,682.86,411.62Z" transform="translate(-447.61 -155.09)"/><path d="M830.61,592.15C755.66,547.62,688,489.87,630.27,421.72c-7.59-1.59-15-2.92-22.32-5.28,65.57,80.94,143.08,147,230.83,196.39h0a13.81,13.81,0,0,0,20.59-12V491.14q-6.87-10.46-13.81-20.72v113.1A10,10,0,0,1,830.61,592.15Z" transform="translate(-447.61 -155.09)"/><path d="M534.75,177.57C609.7,222.1,677.32,279.84,735.09,348c7.59,1.59,15,2.92,22.32,5.28-65.57-80.94-143.08-147-230.83-196.39h0a13.81,13.81,0,0,0-20.59,12V278.57q6.87,10.46,13.81,20.72V186.2A10,10,0,0,1,534.75,177.57Z" transform="translate(-447.61 -155.09)"/><path d="M838.78,156.89a788,788,0,0,0-135.6,96.83c3.39,3.17,6.66,6.51,10,9.75a780,780,0,0,1,117.44-85.9,9.94,9.94,0,0,1,14.94,8.61V299.31q6.95-10.27,13.81-20.72V168.92a13.81,13.81,0,0,0-20.59-12Z" transform="translate(-447.61 -155.09)"/><path d="M519.8,583.53V470.41q-6.95,10.27-13.81,20.72V600.79a13.81,13.81,0,0,0,20.59,12h0a787.94,787.94,0,0,0,135.8-97c-3.39-3.18-6.66-6.51-10-9.75a780,780,0,0,1-117.64,86.07A9.94,9.94,0,0,1,519.8,583.53Z" transform="translate(-447.61 -155.09)"/><path d="M561,375.61c-18.46-21-66.25-73.81-97.47-95.7-7.41-5.2-15.94,1.57-15.94,13v184c0,11.38,8.62,18.3,15.94,13,33.18-24.22,79.54-76,97.53-96.63A13.31,13.31,0,0,0,561,375.61Zm-99.59,88.45V305.4a4.71,4.71,0,0,1,7.72-3.64c28.33,23.86,64,63.24,78.75,79.86a4.65,4.65,0,0,1-.05,6.22c-16.71,18.6-50.24,55.61-78.65,79.82A4.71,4.71,0,0,1,461.43,464.06Z" transform="translate(-447.61 -155.09)"/><path d="M804.34,375.61c18.46-21,66.25-73.81,97.47-95.7,7.41-5.2,15.94,1.57,15.94,13v184c0,11.38-8.62,18.3-15.94,13-33.18-24.22-79.54-76-97.53-96.63A13.31,13.31,0,0,1,804.34,375.61Zm99.59,88.45V305.4a4.71,4.71,0,0,0-7.72-3.64c-28.33,23.86-64,63.24-78.75,79.86a4.65,4.65,0,0,0,.05,6.22c16.71,18.6,50.24,55.61,78.65,79.82A4.71,4.71,0,0,0,903.93,464.06Z" transform="translate(-447.61 -155.09)"/></svg>